<svg height='100px' width='100px'  fill="#1A1A1A" xmlns="http://www.w3.org/2000/svg" viewBox="0 0 30 30" x="0px" y="0px"><title>edit_modify_write_pen</title><path d="M26.65,5.23,24.77,3.35a2.57,2.57,0,0,0-3.54,0l-8.94,8.94a1,1,0,0,0-.27.51l-1,5a1,1,0,0,0,.27.91A1,1,0,0,0,12,19l.2,0,5-1a1,1,0,0,0,.51-.27l8.94-8.94a2.51,2.51,0,0,0,0-3.54ZM16.51,16.08l-3.24.65.65-3.24L20,7.41,22.59,10Zm8.72-8.73L24,8.59,21.41,6l1.24-1.23a.48.48,0,0,1,.7,0l1.88,1.88a.48.48,0,0,1,0,.7Z"></path><path d="M21.5,27H6.5A3.5,3.5,0,0,1,3,23.5V8.5A3.5,3.5,0,0,1,6.5,5H13a1,1,0,0,1,0,2H6.5A1.5,1.5,0,0,0,5,8.5v15A1.5,1.5,0,0,0,6.5,25h15A1.5,1.5,0,0,0,23,23.5V17a1,1,0,0,1,2,0v6.5A3.5,3.5,0,0,1,21.5,27Z"></path></svg>