<svg height='100px' width='100px'  fill="#FFFFFF" xmlns="http://www.w3.org/2000/svg" xmlns:xlink="http://www.w3.org/1999/xlink" version="1.1" x="0px" y="0px" viewBox="0 0 90 90" enable-background="new 0 0 90 90" xml:space="preserve"><circle cx="15.057" cy="55.898" r="12.833"></circle><path d="M75.165,48.065c4.319,0,7.834,3.514,7.834,7.833s-3.515,7.833-7.834,7.833s-7.833-3.514-7.833-7.833  S70.845,48.065,75.165,48.065 M75.165,43.064c-7.088,0-12.833,5.746-12.833,12.833s5.745,12.833,12.833,12.833  s12.834-5.745,12.834-12.833S82.252,43.064,75.165,43.064L75.165,43.064z"></path><g><g><path d="M71.757,33.024c0,0-0.172-0.218-0.494-0.626c-0.321-0.411-0.791-1.02-1.431-1.706c-0.31-0.354-0.658-0.743-1.075-1.141    c-0.409-0.401-0.833-0.853-1.341-1.279c-0.494-0.438-1.014-0.911-1.608-1.353c-0.572-0.469-1.202-0.922-1.875-1.373    c-0.652-0.478-1.398-0.876-2.127-1.347c-0.772-0.401-1.538-0.871-2.387-1.234c-1.657-0.804-3.492-1.458-5.423-1.965    c-1.928-0.521-3.972-0.847-6.055-0.958c-0.52-0.038-1.042-0.068-1.567-0.055c-0.502,0.009-1.099-0.018-1.526,0.019    c-1.086,0.096-2.262,0.122-3.231,0.32c-2.014,0.238-4.084,0.887-6.006,1.534c-1.908,0.754-3.775,1.509-5.471,2.476    c-0.886,0.413-1.668,0.975-2.492,1.433c-0.779,0.524-1.567,1.013-2.282,1.561c-1.417,1.105-2.773,2.171-3.876,3.318    c-0.579,0.549-1.133,1.083-1.603,1.641c-0.479,0.55-0.977,1.048-1.371,1.572c-0.409,0.513-0.806,0.99-1.153,1.447    c-0.335,0.468-0.644,0.897-0.922,1.285c-0.59,0.767-0.933,1.44-1.248,1.864c-0.292,0.438-0.447,0.671-0.447,0.671l-0.371-0.148    c0,0,0.069-0.274,0.199-0.788c0.144-0.509,0.3-1.288,0.661-2.216c0.18-0.468,0.378-0.986,0.595-1.55    c0.229-0.562,0.546-1.132,0.85-1.767c0.293-0.644,0.691-1.276,1.11-1.948c0.399-0.688,0.886-1.363,1.404-2.066    c0.506-0.714,1.114-1.391,1.74-2.1c0.598-0.738,1.338-1.381,2.066-2.079c0.741-0.684,1.566-1.314,2.392-1.984    c0.44-0.297,0.885-0.598,1.334-0.902c0.446-0.311,0.907-0.607,1.397-0.865c0.486-0.264,0.976-0.53,1.47-0.799    c0.503-0.249,1.027-0.467,1.55-0.691c1.03-0.49,2.15-0.791,3.246-1.161c2.263-0.584,4.518-1.038,6.933-1.18    c1.229-0.137,2.28-0.074,3.401-0.094c0.677-0.003,1.184,0.059,1.78,0.085c0.575,0.022,1.146,0.09,1.712,0.166    c2.27,0.263,4.471,0.756,6.523,1.447c2.055,0.677,3.981,1.503,5.702,2.472c1.733,0.942,3.289,1.977,4.619,3.058    c0.673,0.532,1.298,1.061,1.861,1.601c0.585,0.513,1.092,1.051,1.572,1.549c0.493,0.486,0.9,0.992,1.293,1.443    c0.396,0.444,0.734,0.884,1.033,1.285c0.625,0.791,1.038,1.426,1.325,1.86c0.289,0.433,0.444,0.663,0.444,0.663L71.757,33.024z"></path><g><polygon points="75.696,29.085 75.55,39.054 66.989,33.944    "></polygon></g></g></g></svg>