<svg height='100px' width='100px'  fill="#1A1A1A" xmlns="http://www.w3.org/2000/svg" xmlns:xlink="http://www.w3.org/1999/xlink" version="1.1" x="0px" y="0px" viewBox="0 0 100 100" style="enable-background:new 0 0 100 100;" xml:space="preserve"><path d="M2.4,44.1l32.9-32.9c3.1-3.1,8.2-3.1,11.4,0c1.6,1.6,2.4,3.6,2.4,5.7c0,2.1-0.8,4.1-2.4,5.7L27.2,42h64.7  c2.2,0,4.2,0.9,5.7,2.4c1.5,1.5,2.4,3.5,2.4,5.7c0,4.4-3.6,8.1-8.1,8.1H27.4l19.3,19.3c1.6,1.6,2.4,3.6,2.4,5.7s-0.8,4.1-2.4,5.7  c-3.1,3.1-8.3,3.1-11.4,0L2.4,55.9C0.8,54.3,0,52.3,0,50.2c0-0.1,0-0.1,0-0.2c0-0.1,0-0.1,0-0.2C0,47.7,0.8,45.7,2.4,44.1z"></path></svg>