<svg fill="#FFFFFF" xmlns="http://www.w3.org/2000/svg" xmlns:xlink="http://www.w3.org/1999/xlink" version="1.1" x="0px" y="0px" viewBox="0 0 512 512" enable-background="new 0 0 512 512" xml:space="preserve"><g><path d="M447.9,51.6H202.3c-7.8,0-14.1,6.3-14.1,14.1s6.3,14.1,14.1,14.1h245.6c7.8,0,14.1-6.3,14.1-14.1S455.7,51.6,447.9,51.6z"></path><path d="M148.7,51.6h-14.1c-7.8,0-14.1,6.3-14.1,14.1s6.3,14.1,14.1,14.1h14.1c7.8,0,14.1-6.3,14.1-14.1S156.5,51.6,148.7,51.6z"></path><path d="M78.2,51.6H64.1C56.3,51.6,50,58,50,65.8s6.3,14.1,14.1,14.1h14.1c7.8,0,14.1-6.3,14.1-14.1S86,51.6,78.2,51.6z"></path><path d="M467.7,2H44.3C21,2,2,21,2,44.3v423.3C2,491,21,510,44.3,510h423.3c23.3,0,42.3-19,42.3-42.3V44.3C510,21,491,2,467.7,2z    M227,249.8c-5.7,23-9.2,48.2-10.1,75h-67.5c2.5-33.6,13.9-64.7,32-91.1C194.9,240.1,210.2,245.5,227,249.8z M199.6,211   c17.9-19,39.6-34.2,64-44.4c-11.4,15.4-21.1,34.4-28.7,56.1C222.2,219.4,210.3,215.5,199.6,211z M216.9,353   c0.9,26.3,4.4,51.6,10.2,74.9c-16.8,4.4-32.3,9.8-45.9,16.1c-18.3-26.8-29.4-58.1-31.8-91.1H216.9z M215.3,481.8   c-5.6-4.7-10.9-9.7-15.8-14.9c10.7-4.5,22.7-8.4,35.6-11.7c3.3,9.4,7,18.3,11.1,26.7H215.3z M321.4,481.8H278   c-5.7-9.8-10.8-20.7-15.2-32.5c18.5-3.2,38.3-5.1,58.5-5.8V481.8z M321.4,415.2c-23.3,0.7-45.8,2.9-66.9,6.7   c-5.3-21.3-8.5-44.7-9.4-68.9h76.3V415.2z M321.4,324.8h-76.3c0.9-24.5,4.3-47.8,9.5-69c21,3.8,43.5,6.1,66.7,6.7V324.8z    M321.4,234.4c-20.2-0.6-40-2.6-58.5-5.8c14-38.5,34.9-66,58.5-74V234.4z M393,481.8h-43.4v-38.3c20.2,0.6,40,2.6,58.5,5.8   C403.8,461.1,398.7,472,393,481.8z M349.6,415.2V353h76.3c-0.9,24.3-4.1,47.6-9.4,69C395.4,418.2,372.9,415.9,349.6,415.2z    M408.1,228.6c-18.5,3.2-38.3,5.1-58.5,5.8v-79.8C373.2,162.6,394.1,190.1,408.1,228.6z M407.1,166.4c24.1,10,46,25.1,64.3,44.6   c-10.7,4.5-22.6,8.4-35.5,11.7C428.3,200.8,418.5,181.8,407.1,166.4z M416.3,255.9c5.3,21.2,8.6,44.5,9.5,69h-76.3v-62.2   C372.8,261.9,395.3,259.6,416.3,255.9z M467.7,481.8h-43c4.1-8.4,7.8-17.3,11.1-26.6c17,4.3,32.4,9.8,45.5,16.2   C479.6,477.3,474.2,481.8,467.7,481.8z M481.8,440.6c-11.6-4.9-24.3-9.1-38-12.7c5.8-23.4,9.2-48.7,10.2-74.9h27.8V440.6z    M481.8,324.8h-27.7c-0.9-26.7-4.4-52-10.1-75c13.6-3.5,26.2-7.8,37.8-12.6V324.8z M481.8,181.6c-39.5-36.9-91.2-57.6-146.3-57.6   c-118.5,0-215,96.4-215,215c0,53.4,19.6,103.8,54.4,142.9H44.3c-7.8,0-14.1-6.3-14.1-14.1V226.3h33.8c7.8,0,14.1-6.3,14.1-14.1   c0-7.8-6.3-14.1-14.1-14.1H30.2v-30.5H100c7.8,0,14.1-6.3,14.1-14.1s-6.3-14.1-14.1-14.1H30.2V44.3c0-7.8,6.3-14.1,14.1-14.1h423.3   c7.8,0,14.1,6.3,14.1,14.1V181.6z"></path></g></svg>