<svg height='100px' width='100px'  fill="#FFFFFF" xmlns="http://www.w3.org/2000/svg" xmlns:xlink="http://www.w3.org/1999/xlink" version="1.1" x="0px" y="0px" viewBox="0 0 64 64" enable-background="new 0 0 64 64" xml:space="preserve"><g><path d="M3.278,26.655v30.312c0.031-0.031,0.061-0.062,0.096-0.089l17.224-12.942c0.427-0.321,1.034-0.235,1.355,0.193l0.001,0.001   c0.321,0.427,0.234,1.034-0.193,1.355L4.964,58.106h54.073l-16.797-12.62c-0.428-0.321-0.514-0.928-0.193-1.356l0,0   c0.321-0.428,0.928-0.514,1.355-0.193l17.224,12.942c0.036,0.027,0.065,0.058,0.096,0.089V26.655L35.773,45.401   c-2.235,1.68-5.312,1.68-7.547,0L3.278,26.655z"></path><g><path d="M37.556,40.61c-2.071,0.932-3.865,1.242-6.316,1.242c-5.729,0-10.768-4.107-10.768-10.872    c0-7.041,5.108-13.15,12.908-13.15c6.074,0,10.423,4.176,10.423,9.974c0,5.039-2.83,8.214-6.557,8.214    c-1.622,0-2.796-0.828-2.968-2.658h-0.069c-1.07,1.76-2.623,2.658-4.452,2.658c-2.243,0-3.865-1.657-3.865-4.487    c0-4.211,3.106-8.042,8.076-8.042c1.519,0,3.244,0.38,4.107,0.863l-1.035,6.385c-0.345,2.036-0.104,2.968,0.863,3.003    c1.484,0.034,3.348-1.864,3.348-5.833c0-4.487-2.899-7.973-8.249-7.973c-5.28,0-9.905,4.142-9.905,10.734    c0,5.764,3.693,9.042,8.835,9.042c1.76,0,3.624-0.38,5.004-1.104L37.556,40.61z M34.484,26.356    c-0.276-0.069-0.621-0.138-1.07-0.138c-2.278,0-4.072,2.243-4.072,4.901c0,1.311,0.587,2.14,1.726,2.14    c1.277,0,2.623-1.622,2.934-3.624L34.484,26.356z"></path></g><g><path d="M17.249,30.981c0-9.334,6.935-16.372,16.13-16.372c7.906,0,13.645,5.55,13.645,13.197c0,3.695-1.28,6.823-3.393,8.869    l15.213-11.432L33.796,6.491c-1.064-0.797-2.526-0.797-3.59,0L5.155,25.243l12.541,9.424C17.405,33.5,17.249,32.266,17.249,30.981    z"></path></g></g></svg>