<svg fill="#FFFFFF" xmlns="http://www.w3.org/2000/svg" xmlns:xlink="http://www.w3.org/1999/xlink" version="1.1" x="0px" y="0px" viewBox="0 0 512 512" enable-background="new 0 0 512 512" xml:space="preserve"><g><path d="M511.737,189.898H170.41l340.546-78.653l-17.374-75.372c-4.875-21.125-25.718-34.343-46.56-29.53L30.043,102.652   c-17.719,4.093-29.749,19.905-29.968,37.561H0.013l0.094,327.152c0,21.687,17.563,39.28,39.217,39.28h433.447   c21.654,0,39.217-17.596,39.217-39.28L511.737,189.898z M402.368,47.186l67.436,44.03l-51.997,12L350.37,59.216L402.368,47.186z    M297.466,71.435l67.436,44.03l-51.998,12L245.47,83.465L297.466,71.435z M195.097,95.089l67.435,44.03l-51.998,12l-67.434-44.03   L195.097,95.089z M90.477,119.246l67.403,44.029l-51.998,12l-67.402-43.998L90.477,119.246z M472.739,467.365H39.229V229.084   h433.51V467.365z"></path><polygon points="215.096,286.091 215.096,413.617 317.122,349.838  "></polygon></g></svg>