<svg height='100px' width='100px'  fill="#FFFFFF" xmlns="http://www.w3.org/2000/svg" xmlns:xlink="http://www.w3.org/1999/xlink" version="1.1" x="0px" y="0px" viewBox="0 0 100 100" enable-background="new 0 0 100 100" xml:space="preserve"><path d="M31,61.8c0-0.8,0.2-2.7,0.2-3.5c0-3.6-1.4-5-4.2-5.2c-1.9-0.2-3.2-1.3-3.2-3.1c0-1.7,1.2-2.9,3.2-3.1  c2.7-0.2,4.2-1.5,4.2-5.2c0-0.9-0.2-2.8-0.2-3.5c0-4.9,2.3-8,10-9.8c2-0.5,3.6,0.8,3.6,2.7c0,1.5-1.1,2.4-1.8,2.6  c-3.9,1.4-4.6,2.8-4.6,5.6c0,1,0.2,2.7,0.2,3.8c0,3.7-1.9,5.7-5.3,6.9c3.4,1.1,5.3,3.1,5.3,6.9c0,1.1-0.2,2.8-0.2,3.8  c0,2.8,0.7,4.2,4.6,5.6c0.8,0.3,1.8,1.1,1.8,2.6c0,1.9-1.6,3.1-3.6,2.7C33.3,69.8,31,66.7,31,61.8z"></path><path d="M69,38.2c0,0.8-0.2,2.7-0.2,3.5c0,3.6,1.4,5,4.2,5.2c1.9,0.2,3.2,1.3,3.2,3.1c0,1.7-1.2,2.9-3.2,3.1  c-2.7,0.2-4.2,1.5-4.2,5.2c0,0.9,0.2,2.8,0.2,3.5c0,4.9-2.3,8-10,9.8c-2,0.5-3.6-0.8-3.6-2.7c0-1.5,1.1-2.4,1.8-2.6  c3.9-1.4,4.6-2.8,4.6-5.6c0-1-0.2-2.7-0.2-3.8c0-3.7,1.9-5.7,5.3-6.9c-3.4-1.1-5.3-3.1-5.3-6.9c0-1.1,0.2-2.8,0.2-3.8  c0-2.8-0.7-4.2-4.6-5.6c-0.8-0.3-1.8-1.1-1.8-2.6c0-1.9,1.6-3.1,3.6-2.7C66.7,30.2,69,33.3,69,38.2z"></path></svg>