<svg height='100px' width='100px'  fill="#FFFFFF" xmlns="http://www.w3.org/2000/svg" xmlns:xlink="http://www.w3.org/1999/xlink" version="1.0" x="0px" y="0px" viewBox="0 0 100 100" enable-background="new 0 0 100 100" xml:space="preserve"><path d="M10,10v80h54.932L52.109,71.692c-3.685-5.273-2.399-12.559,2.864-16.246c4.567-3.2,11.198-2.517,15.026,1.39V27.24V10H10z   M43.333,80H20v-6.667h23.333V80z M43.333,66.667H20V60h23.333V66.667z M36.667,43.333l-10-10l4.714-4.714l5.286,5.283l11.953-11.95  l4.713,4.713L36.667,43.333z"></path><path d="M57.571,67.868L73.069,90H90V56.094c0-1.839-0.745-3.506-1.953-4.713L76.667,40v28.184H70l-4.238-6.052  c-1.582-2.262-4.7-2.813-6.963-1.227C56.536,62.49,55.989,65.605,57.571,67.868z"></path></svg>