<svg fill="#FFFFFF" xmlns="http://www.w3.org/2000/svg" xmlns:xlink="http://www.w3.org/1999/xlink" viewBox="0 0 100 100" version="1.1" x="0px" y="0px"><title>tool-8 copy 4</title><desc>Created with Sketch.</desc><g stroke="none" stroke-width="1" fill="none" fill-rule="evenodd"><path d="M31.695,42.486 C37.122,42.486 41.521,38.087 41.521,32.66 C41.521,27.233 37.122,22.834 31.695,22.834 C26.268,22.834 21.869,27.233 21.869,32.66 C21.869,38.087 26.268,42.486 31.695,42.486 L31.695,42.486 Z M81.935,50.615 C80.535,49.618 78.518,49.53 77.021,50.876 L67.41,59.523 C63.708,62.811 57.997,62.279 54.966,58.364 L52.83,55.606 C50.188,52.193 45.489,51.344 41.856,53.408 C41.461,53.632 41.075,53.881 40.709,54.175 L19.332,71.628 C17.496,73.127 16.431,75.371 16.431,77.741 L16.431,80.869 C16.431,82.32 17.607,83.496 19.057,83.496 L81.253,83.496 C82.533,83.496 83.57,82.458 83.57,81.179 L83.57,53.793 C83.57,52.41 82.897,51.3 81.935,50.615 L81.935,50.615 Z M89,85.184 C89,87.288 87.289,89 85.185,89 L14.816,89 C12.712,89 11,87.288 11,85.184 L11,14.815 C11,12.711 12.712,11 14.816,11 L85.185,11 C87.289,11 89,12.711 89,14.815 L89,85.184 Z M85.185,5 L14.816,5 C9.395,5 5,9.394 5,14.815 L5,85.184 C5,90.605 9.395,95 14.816,95 L85.185,95 C90.606,95 95,90.605 95,85.184 L95,14.815 C95,9.394 90.606,5 85.185,5 L85.185,5 Z" fill="#FFFFFF"></path></g></svg>