<svg height='100px' width='100px'  fill="#FFFFFF" xmlns:x="http://ns.adobe.com/Extensibility/1.0/" xmlns:i="http://ns.adobe.com/AdobeIllustrator/10.0/" xmlns:graph="http://ns.adobe.com/Graphs/1.0/" xmlns="http://www.w3.org/2000/svg" xmlns:xlink="http://www.w3.org/1999/xlink" version="1.1" x="0px" y="0px" viewBox="0 0 100 100" style="enable-background:new 0 0 100 100;" xml:space="preserve"><g><g i:extraneous="self"><g><path d="M50,2.5C23.8,2.5,2.5,23.8,2.5,50c0,26.2,21.3,47.5,47.5,47.5c26.2,0,47.5-21.3,47.5-47.5C97.5,23.8,76.2,2.5,50,2.5z      M50,87.2c-20.5,0-37.2-16.7-37.2-37.2c0-20.5,16.7-37.2,37.2-37.2c20.5,0,37.2,16.7,37.2,37.2C87.2,70.5,70.5,87.2,50,87.2z"></path><path d="M70.7,35.3l-6-6c-0.9-0.9-2.2-0.9-3.1,0L50,40.9L38.4,29.3c-0.9-0.9-2.2-0.9-3.1,0l-6,6c-0.9,0.9-0.9,2.2,0,3.1L40.9,50     L29.3,61.6c-0.9,0.9-0.9,2.2,0,3.1l6,6c0.9,0.9,2.2,0.9,3.1,0L50,59.1l11.6,11.6c0.9,0.9,2.2,0.9,3.1,0l6-6     c0.9-0.9,0.9-2.2,0-3.1L59.1,50l11.6-11.6C71.6,37.5,71.6,36.1,70.7,35.3z"></path></g></g></g></svg>