<svg height='100px' width='100px'  fill="#FFFFFF" xmlns="http://www.w3.org/2000/svg" viewBox="0 0 100 100" x="0px" y="0px"><title>pdf</title><g data-name="pdf"><path d="M87,25.34,70.92,7.75A8.46,8.46,0,0,0,64.69,5H19.23a8.45,8.45,0,0,0-8.44,8.44V86.56A8.45,8.45,0,0,0,19.23,95H80.77a8.45,8.45,0,0,0,8.44-8.44V31A8.4,8.4,0,0,0,87,25.34Zm-5.33,2.51H71.31A2.82,2.82,0,0,1,68.5,25V13.44Zm-.9,61.53H19.23a2.82,2.82,0,0,1-2.82-2.82V13.44a2.82,2.82,0,0,1,2.82-2.82H62.87V25a8.45,8.45,0,0,0,8.44,8.44H83.59V86.56A2.82,2.82,0,0,1,80.77,89.38Z"></path><path d="M38.61,45A7.33,7.33,0,0,0,36,43.86a14.69,14.69,0,0,0-3.26-.34H26.44a.94.94,0,0,0-.94.94V63.59a.94.94,0,0,0,.94.94h2.85a.94.94,0,0,0,.94-.94V58.35a1,1,0,0,1,.94-.94h1.67A11.54,11.54,0,0,0,36,57a7.6,7.6,0,0,0,2.61-1.29,6.21,6.21,0,0,0,1.79-2.22,7.24,7.24,0,0,0,.66-3.19,7.06,7.06,0,0,0-.66-3.21A5.54,5.54,0,0,0,38.61,45Zm-6.06,8.65H31.17a1,1,0,0,1-.94-.94V48.23a1,1,0,0,1,.94-.94h1.26a5.42,5.42,0,0,1,3,.68,2.55,2.55,0,0,1,1,2.32Q36.42,53.64,32.55,53.64Z"></path><path d="M57,46a8.78,8.78,0,0,0-3.32-1.89,14.65,14.65,0,0,0-4.35-.61h-5a.94.94,0,0,0-.94.94V63.59a.94.94,0,0,0,.94.94H49.6a12.9,12.9,0,0,0,4.2-.65,8.58,8.58,0,0,0,3.24-2,8.69,8.69,0,0,0,2.09-3.3,13.37,13.37,0,0,0,.74-4.7,13.08,13.08,0,0,0-.74-4.67A8.28,8.28,0,0,0,57,46Zm-2.44,11.1a5.46,5.46,0,0,1-1.2,2.08,4.65,4.65,0,0,1-1.87,1.14,7.84,7.84,0,0,1-2.45.35h-.9V47.36h.9a8.5,8.5,0,0,1,2.45.32,4.33,4.33,0,0,1,1.87,1.08,5.1,5.1,0,0,1,1.2,2A9.5,9.5,0,0,1,55,53.93,9.78,9.78,0,0,1,54.57,57.12Z"></path><path d="M74.88,43.52H63.52a.94.94,0,0,0-.94.94V63.59a.94.94,0,0,0,.94.94h2.86a.94.94,0,0,0,.94-.94V57.32a.94.94,0,0,1,.94-.94h5.4a.94.94,0,0,0,.94-.94V53.32a.94.94,0,0,0-.94-.94h-5.4a.94.94,0,0,1-.94-.94v-3a.94.94,0,0,1,.94-.94h6.62a.94.94,0,0,0,.94-.94V44.46A.94.94,0,0,0,74.88,43.52Z"></path></g></svg>