<svg height='100px' width='100px'  fill="#FFFFFF" xmlns="http://www.w3.org/2000/svg" viewBox="0 0 100 100" x="0px" y="0px"><title>powerpoint</title><g><path d="M39,45a7.33,7.33,0,0,0-2.64-1.13,14.69,14.69,0,0,0-3.26-.34H26.78a.94.94,0,0,0-.94.94V63.59a.94.94,0,0,0,.94.94h2.86a.94.94,0,0,0,.93-.94V58.35a.94.94,0,0,1,.94-.94h1.67A11.54,11.54,0,0,0,36.34,57,7.6,7.6,0,0,0,39,55.7a6.21,6.21,0,0,0,1.79-2.22,7.24,7.24,0,0,0,.66-3.19,7.06,7.06,0,0,0-.66-3.21A5.54,5.54,0,0,0,39,45Zm-6.06,8.65H31.51a.94.94,0,0,1-.94-.94V48.23a.94.94,0,0,1,.94-.94h1.26a5.42,5.42,0,0,1,3,.68,2.55,2.55,0,0,1,1,2.32Q36.76,53.64,32.89,53.64Z"></path><path d="M56.86,45a7.33,7.33,0,0,0-2.64-1.13A14.6,14.6,0,0,0,51,43.52H44.69a.94.94,0,0,0-.94.94V63.59a.94.94,0,0,0,.94.94h2.86a.94.94,0,0,0,.94-.94V58.35a.94.94,0,0,1,.94-.94H51.1A11.47,11.47,0,0,0,54.25,57a7.6,7.6,0,0,0,2.61-1.29,6.11,6.11,0,0,0,1.79-2.22,7.24,7.24,0,0,0,.66-3.19,7.06,7.06,0,0,0-.66-3.21A5.45,5.45,0,0,0,56.86,45Zm-6,8.65H49.43a.94.94,0,0,1-.94-.94V48.23a.94.94,0,0,1,.94-.94h1.25a5.4,5.4,0,0,1,3,.68,2.55,2.55,0,0,1,1,2.32Q54.67,53.64,50.81,53.64Z"></path><path d="M74.9,43.52H60.48a.94.94,0,0,0-.94.94v2.12a.94.94,0,0,0,.94.94h3.89a.93.93,0,0,1,.93.93V63.59a.94.94,0,0,0,.94.94h2.9a.94.94,0,0,0,.93-.94V48.45a.94.94,0,0,1,.94-.93H74.9a.94.94,0,0,0,.94-.94V44.46A.94.94,0,0,0,74.9,43.52Z"></path><path d="M87,25.34,70.92,7.75A8.44,8.44,0,0,0,64.69,5H19.23a8.45,8.45,0,0,0-8.44,8.44V86.56A8.45,8.45,0,0,0,19.23,95H80.77a8.45,8.45,0,0,0,8.44-8.44V31A8.4,8.4,0,0,0,87,25.34Zm-5.33,2.51H71.31A2.82,2.82,0,0,1,68.5,25V13.44Zm-.9,61.53H19.23a2.82,2.82,0,0,1-2.82-2.82V13.44a2.82,2.82,0,0,1,2.82-2.82H62.87V25a8.45,8.45,0,0,0,8.44,8.44H83.59V86.56A2.82,2.82,0,0,1,80.77,89.38Z"></path></g></svg>