<svg height='100px' width='100px'  fill="#FFFFFF" xmlns="http://www.w3.org/2000/svg" viewBox="0 0 100 100" x="0px" y="0px"><title>mov</title><g><path d="M40.65,43.52H37.1a.92.92,0,0,0-.88.63l-3.1,8.71q-.33.95-.6,1.92c-.18.66-.38,1.31-.59,1.95H31.8c-.22-.64-.42-1.29-.61-1.95s-.4-1.29-.62-1.92l-3.16-8.72a.93.93,0,0,0-.88-.62H22.94a.94.94,0,0,0-.94.94V63.59a.94.94,0,0,0,.94.94h2.38a.94.94,0,0,0,.94-.94V56.83c0-.52,0-1.09-.07-1.71s-.09-1.25-.16-1.88-.13-1.26-.19-1.87-.13-1.18-.2-1.7h.13l1.68,5,2.77,7.41a.92.92,0,0,0,.88.61h1.3a.92.92,0,0,0,.88-.61l2.77-7.41,1.71-5h.13c-.07.52-.13,1.08-.2,1.7s-.12,1.23-.19,1.87-.12,1.26-.16,1.88-.06,1.19-.06,1.71v6.76a.93.93,0,0,0,.93.94h2.44a.94.94,0,0,0,.94-.94V44.46A.94.94,0,0,0,40.65,43.52Z"></path><path d="M60.37,46a8.21,8.21,0,0,0-3-2.11,10.68,10.68,0,0,0-7.76,0,8.28,8.28,0,0,0-3,2.09,9.47,9.47,0,0,0-2,3.39,13.83,13.83,0,0,0-.7,4.59,14,14,0,0,0,.7,4.61,9.87,9.87,0,0,0,2,3.44,8.39,8.39,0,0,0,3,2.18,10.41,10.41,0,0,0,7.76,0,8.39,8.39,0,0,0,3-2.18,9.87,9.87,0,0,0,2-3.44,14,14,0,0,0,.7-4.61,13.73,13.73,0,0,0-.7-4.56A9.6,9.6,0,0,0,60.37,46ZM56.89,59a4.07,4.07,0,0,1-6.82,0,8.85,8.85,0,0,1-1.26-5A8.38,8.38,0,0,1,50.07,49c1.09-1.55,2.71-2.09,4.85-1.6a.86.86,0,0,1,.28.11q3,1.58,2.95,6.42A8.85,8.85,0,0,1,56.89,59Z"></path><path d="M79.44,43.52H76.6a.94.94,0,0,0-.91.71l-2.3,9.09q-.45,1.74-.84,3.36c-.25,1.09-.53,2.21-.83,3.37h-.13c-.33-1.16-.61-2.28-.86-3.37s-.53-2.2-.85-3.36l-2.33-9.09a.94.94,0,0,0-.91-.71h-3a.93.93,0,0,0-.89,1.21l5.78,19.13a.93.93,0,0,0,.89.67h4.31a.93.93,0,0,0,.9-.67l5.75-19.13A.94.94,0,0,0,79.44,43.52Z"></path><path d="M87,25.34,70.92,7.75A8.44,8.44,0,0,0,64.69,5H19.23a8.45,8.45,0,0,0-8.44,8.44V86.56A8.45,8.45,0,0,0,19.23,95H80.77a8.45,8.45,0,0,0,8.44-8.44V31A8.4,8.4,0,0,0,87,25.34Zm-5.33,2.51H71.31A2.82,2.82,0,0,1,68.5,25V13.44Zm-.9,61.53H19.23a2.82,2.82,0,0,1-2.82-2.82V13.44a2.82,2.82,0,0,1,2.82-2.82H62.87V25a8.45,8.45,0,0,0,8.44,8.44H83.59V86.56A2.83,2.83,0,0,1,80.77,89.38Z"></path></g></svg>