<svg height='100px' width='100px'  fill="#FFFFFF" xmlns="http://www.w3.org/2000/svg" viewBox="0 0 100 100" x="0px" y="0px"><title>word</title><g><path d="M23.15,63.59V44.46a.94.94,0,0,1,.94-.94h5a14.65,14.65,0,0,1,4.35.61A8.74,8.74,0,0,1,36.74,46a8.19,8.19,0,0,1,2.13,3.24,13.3,13.3,0,0,1,.74,4.67,13.6,13.6,0,0,1-.74,4.7,8.35,8.35,0,0,1-5.33,5.25,13,13,0,0,1-4.21.65H24.09A.94.94,0,0,1,23.15,63.59Zm4.73-2.9h.91a7.78,7.78,0,0,0,2.44-.35A4.52,4.52,0,0,0,33.1,59.2a5.35,5.35,0,0,0,1.21-2.08,10.06,10.06,0,0,0,.44-3.19,9.77,9.77,0,0,0-.44-3.14,5,5,0,0,0-1.21-2,4.22,4.22,0,0,0-1.87-1.08,8.43,8.43,0,0,0-2.44-.32h-.91Z"></path><path d="M50.86,64.91A9.81,9.81,0,0,1,47,64.16,8.48,8.48,0,0,1,44,62a9.87,9.87,0,0,1-2-3.44,14.32,14.32,0,0,1-.69-4.61A14.1,14.1,0,0,1,42,49.34,9.47,9.47,0,0,1,44,46a8.37,8.37,0,0,1,3-2.09,10.7,10.7,0,0,1,7.77,0,8.3,8.3,0,0,1,3,2.11,9.6,9.6,0,0,1,2,3.4,14,14,0,0,1,.69,4.56,14.32,14.32,0,0,1-.69,4.61,9.87,9.87,0,0,1-2,3.44,8.48,8.48,0,0,1-3,2.18A9.8,9.8,0,0,1,50.86,64.91Zm0-4.09A3.92,3.92,0,0,0,54.27,59a8.85,8.85,0,0,0,1.26-5c0-3.23-1-5.37-3-6.42a1,1,0,0,0-.29-.11A4.26,4.26,0,0,0,47.44,49a8.38,8.38,0,0,0-1.26,4.93,8.85,8.85,0,0,0,1.26,5A3.92,3.92,0,0,0,50.86,60.82Z"></path><path d="M71.83,64.91a10.3,10.3,0,0,1-3.77-.69,8.85,8.85,0,0,1-3.11-2,9.67,9.67,0,0,1-2.11-3.37,12.86,12.86,0,0,1-.77-4.66,12.53,12.53,0,0,1,.8-4.65A10.64,10.64,0,0,1,65,46a9,9,0,0,1,3.16-2.15,9.79,9.79,0,0,1,3.8-.75,7.87,7.87,0,0,1,3.64.83,10.71,10.71,0,0,1,2,1.28.94.94,0,0,1,.12,1.32l-1.34,1.62a.93.93,0,0,1-1.27.16,9.23,9.23,0,0,0-1-.65,4.25,4.25,0,0,0-2-.46,4.56,4.56,0,0,0-2,.46A4.9,4.9,0,0,0,68.43,49a6.69,6.69,0,0,0-1.1,2.13,9.48,9.48,0,0,0-.4,2.83,8,8,0,0,0,1.39,5A4.41,4.41,0,0,0,72,60.82a4.76,4.76,0,0,0,2.31-.56,6.94,6.94,0,0,0,1.1-.76.94.94,0,0,1,1.32.11l1.34,1.57a1,1,0,0,1-.08,1.3A8.53,8.53,0,0,1,71.83,64.91Z"></path><path d="M87,25.34,70.92,7.75A8.46,8.46,0,0,0,64.69,5H19.23a8.45,8.45,0,0,0-8.44,8.44V86.56A8.45,8.45,0,0,0,19.23,95H80.77a8.45,8.45,0,0,0,8.44-8.44V31A8.4,8.4,0,0,0,87,25.34Zm-5.33,2.51H71.31A2.82,2.82,0,0,1,68.5,25V13.44Zm-.9,61.53H19.23a2.82,2.82,0,0,1-2.82-2.82V13.44a2.82,2.82,0,0,1,2.82-2.82H62.87V25a8.45,8.45,0,0,0,8.44,8.44H83.59V86.56A2.82,2.82,0,0,1,80.77,89.38Z"></path></g></svg>