<svg height='100px' width='100px'  fill="#FFFFFF" xmlns="http://www.w3.org/2000/svg" viewBox="0 0 100 100" x="0px" y="0px"><title>html</title><g><path d="M22.08,61.13V46.5a.94.94,0,0,1,.94-.94h1.85a.94.94,0,0,1,.93.94V51a.94.94,0,0,0,.94.94h3.82A.94.94,0,0,0,31.5,51V46.5a.94.94,0,0,1,.94-.94h1.87a.94.94,0,0,1,.93.94V61.13a.94.94,0,0,1-.93.94H32.44a.94.94,0,0,1-.94-.94v-5a.94.94,0,0,0-.94-.94H26.74a.94.94,0,0,0-.94.94v5a.94.94,0,0,1-.93.94H23A.94.94,0,0,1,22.08,61.13Z"></path><path d="M41.09,61.13V49.64a.94.94,0,0,0-.94-.94H37.5a.94.94,0,0,1-.94-.94V46.5a.94.94,0,0,1,.94-.94H48.43a.94.94,0,0,1,.94.94v1.26a.94.94,0,0,1-.94.94H45.77a.94.94,0,0,0-.93.94V61.13a.94.94,0,0,1-.94.94H42A.94.94,0,0,1,41.09,61.13Z"></path><path d="M50.68,61.13V46.5a.94.94,0,0,1,.94-.94H54.1a.93.93,0,0,1,.88.62l2.44,6.72c.17.49.33,1,.48,1.51s.31,1,.48,1.53h.1c.17-.51.33-1,.47-1.53s.3-1,.47-1.51l2.38-6.71a1,1,0,0,1,.89-.63h2.45a.93.93,0,0,1,.93.94V61.13a.93.93,0,0,1-.93.94H63.62a.94.94,0,0,1-.94-.94V56c0-.41,0-.86,0-1.34s.08-1,.13-1.49L63,51.73c.05-.48.1-.93.15-1.33h-.1l-1.34,3.92L59.59,60a.92.92,0,0,1-.87.61H58a.94.94,0,0,1-.88-.61L55,54.32,53.65,50.4h-.11c.06.4.11.85.16,1.33l.15,1.46c0,.5.09,1,.13,1.49S54,55.61,54,56v5.11a.94.94,0,0,1-.94.94H51.62A.94.94,0,0,1,50.68,61.13Z"></path><path d="M68.71,61.13V46.5a.94.94,0,0,1,.93-.94h1.85a.94.94,0,0,1,.94.94V58a.94.94,0,0,0,.94.94H78a.94.94,0,0,1,.94.94v1.26a.94.94,0,0,1-.94.94H69.64A.94.94,0,0,1,68.71,61.13Z"></path><path d="M70.92,7.75A8.44,8.44,0,0,0,64.69,5H19.23a8.45,8.45,0,0,0-8.44,8.44V86.56A8.45,8.45,0,0,0,19.23,95H80.77a8.45,8.45,0,0,0,8.44-8.44V31A8.4,8.4,0,0,0,87,25.34Zm10.75,20.1H71.31A2.82,2.82,0,0,1,68.5,25V13.44Zm-.9,61.53H19.23a2.82,2.82,0,0,1-2.82-2.82V13.44a2.82,2.82,0,0,1,2.82-2.82H62.87V25a8.45,8.45,0,0,0,8.44,8.44H83.59V86.56A2.82,2.82,0,0,1,80.77,89.38Z"></path></g></svg>