<svg height='100px' width='100px'  fill="#FFFFFF" xmlns="http://www.w3.org/2000/svg" viewBox="0 0 100 100" x="0px" y="0px"><title>excel</title><g><path d="M87,25.34,70.92,7.75A8.46,8.46,0,0,0,64.69,5H19.23a8.45,8.45,0,0,0-8.44,8.44V86.56A8.45,8.45,0,0,0,19.23,95H80.77a8.45,8.45,0,0,0,8.44-8.44V31A8.4,8.4,0,0,0,87,25.34Zm-5.33,2.51H71.31A2.82,2.82,0,0,1,68.5,25V13.44Zm-.9,61.53H19.23a2.82,2.82,0,0,1-2.82-2.82V13.44a2.82,2.82,0,0,1,2.82-2.82H62.87V25a8.45,8.45,0,0,0,8.44,8.44H83.59V86.56A2.82,2.82,0,0,1,80.77,89.38Z"></path><path d="M36.37,54.4a1,1,0,0,1,0-.89l4.5-8.61A1,1,0,0,0,40,43.52H37.14a1,1,0,0,0-.87.58l-1.43,3.38-.66,1.57c-.22.54-.46,1.15-.69,1.82h-.13l-.81-1.82c-.23-.55-.47-1.07-.7-1.57l-1.59-3.41a.93.93,0,0,0-.85-.55H26.3a.94.94,0,0,0-.83,1.39L30,53.29a.94.94,0,0,1,0,.89l-4.84,9A.94.94,0,0,0,26,64.53h2.91a.94.94,0,0,0,.85-.55l1.72-3.74c.23-.56.47-1.11.71-1.66s.47-1.14.7-1.78H33c.3.64.58,1.24.82,1.78l.76,1.66L36.39,64a.94.94,0,0,0,.84.53h3.11a.94.94,0,0,0,.83-1.39Z"></path><path d="M56.87,60.53H50.44a.94.94,0,0,1-.94-.94V44.46a.94.94,0,0,0-.94-.94H45.71a.94.94,0,0,0-.94.94V63.59a.94.94,0,0,0,.94.94H56.87a.94.94,0,0,0,.94-.94V61.47A.94.94,0,0,0,56.87,60.53Z"></path><path d="M70.73,52.7,68,51.61l-1.26-.53a6.9,6.9,0,0,1-1-.52,2.35,2.35,0,0,1-.67-.61,1.39,1.39,0,0,1-.24-.82,1.6,1.6,0,0,1,.72-1.4,3.32,3.32,0,0,1,2-.5,5.84,5.84,0,0,1,2.29.43,8.44,8.44,0,0,1,1.37.75,1,1,0,0,0,1.25-.2l1.3-1.61a1,1,0,0,0-.15-1.34,9.4,9.4,0,0,0-2.44-1.42,9.8,9.8,0,0,0-3.62-.71,9,9,0,0,0-3,.49A7.31,7.31,0,0,0,62.13,45a6,6,0,0,0-1.55,2A5.68,5.68,0,0,0,60,49.39a5.62,5.62,0,0,0,.35,2.07,5.35,5.35,0,0,0,1,1.61,6.73,6.73,0,0,0,1.35,1.21,7.7,7.7,0,0,0,1.57.84L67,56.28l1.25.53a5.37,5.37,0,0,1,1,.52,1.92,1.92,0,0,1,.61.63,1.57,1.57,0,0,1,.21.83,1.75,1.75,0,0,1-.72,1.48,3.61,3.61,0,0,1-2.21.55,6.52,6.52,0,0,1-2.69-.61,10.34,10.34,0,0,1-1.83-1.05.93.93,0,0,0-1.25.17l-1.53,1.84A1,1,0,0,0,60,62.53a10.5,10.5,0,0,0,2.9,1.63,11.92,11.92,0,0,0,4.11.75,9.73,9.73,0,0,0,3.35-.53A7.66,7.66,0,0,0,72.81,63a6.09,6.09,0,0,0,1.55-2.07,6,6,0,0,0,.53-2.49,5.45,5.45,0,0,0-1.11-3.58A7.47,7.47,0,0,0,70.73,52.7Z"></path></g></svg>