<svg height='100px' width='100px'  fill="#FFFFFF" xmlns="http://www.w3.org/2000/svg" viewBox="0 0 100 100" x="0px" y="0px"><title>csv</title><g><path d="M41.87,60.07a.94.94,0,0,0-1.32-.1,7.2,7.2,0,0,1-1.11.75,4.59,4.59,0,0,1-2.3.57,4.47,4.47,0,0,1-3.71-1.79,8.08,8.08,0,0,1-1.38-5,9.24,9.24,0,0,1,.4-2.84,6.63,6.63,0,0,1,1.1-2.12,4.78,4.78,0,0,1,1.64-1.34,4.53,4.53,0,0,1,2-.47,4.27,4.27,0,0,1,2,.47,7,7,0,0,1,1,.65.92.92,0,0,0,1.26-.16L42.85,47a1,1,0,0,0-.12-1.33,10.71,10.71,0,0,0-2-1.28,7.89,7.89,0,0,0-3.64-.82,10,10,0,0,0-3.8.74,8.91,8.91,0,0,0-3.16,2.16A10.6,10.6,0,0,0,28,50a12.61,12.61,0,0,0-.81,4.66A12.8,12.8,0,0,0,28,59.27a9.49,9.49,0,0,0,2.11,3.37,9,9,0,0,0,3.11,2,10.26,10.26,0,0,0,3.77.69A8.49,8.49,0,0,0,43.12,63a1,1,0,0,0,.08-1.3Z"></path><path d="M54.92,53.17l-2.7-1.1L51,51.54A6.77,6.77,0,0,1,50,51a2.42,2.42,0,0,1-.68-.62,1.37,1.37,0,0,1-.24-.82,1.6,1.6,0,0,1,.72-1.4,3.41,3.41,0,0,1,2-.5,5.84,5.84,0,0,1,2.29.44,8.44,8.44,0,0,1,1.38.74.93.93,0,0,0,1.24-.19l1.3-1.62a.94.94,0,0,0-.15-1.33,9.22,9.22,0,0,0-2.43-1.42,9.85,9.85,0,0,0-3.63-.71,9,9,0,0,0-3,.48,7.42,7.42,0,0,0-2.37,1.34,6.13,6.13,0,0,0-1.55,2,5.61,5.61,0,0,0-.54,2.43,5.67,5.67,0,0,0,.35,2.08,5.48,5.48,0,0,0,1,1.61,7.4,7.4,0,0,0,1.35,1.21,8.18,8.18,0,0,0,1.57.83l2.74,1.16,1.24.54a6.09,6.09,0,0,1,1,.51,1.92,1.92,0,0,1,.61.63,1.61,1.61,0,0,1,.21.84,1.77,1.77,0,0,1-.72,1.48,3.68,3.68,0,0,1-2.21.55,6.57,6.57,0,0,1-2.69-.62,10.34,10.34,0,0,1-1.83-1.05.92.92,0,0,0-1.24.17L44,61.64A1,1,0,0,0,44.14,63a10.64,10.64,0,0,0,2.91,1.62,11.61,11.61,0,0,0,4.1.76,9.94,9.94,0,0,0,3.35-.53A7.86,7.86,0,0,0,57,63.43a5.93,5.93,0,0,0,2.08-4.56A5.49,5.49,0,0,0,58,55.29,7.36,7.36,0,0,0,54.92,53.17Z"></path><path d="M75.76,44H72.92a.94.94,0,0,0-.91.7l-2.3,9.09c-.3,1.16-.58,2.28-.84,3.37s-.53,2.2-.83,3.36h-.13c-.33-1.16-.61-2.28-.86-3.36s-.53-2.21-.85-3.37l-2.33-9.09A.94.94,0,0,0,63,44h-3a.93.93,0,0,0-.89,1.2l5.78,19.14a.93.93,0,0,0,.89.66H70a.93.93,0,0,0,.9-.67l5.75-19.13A.93.93,0,0,0,75.76,44Z"></path><path d="M88.25,25.81,72.17,8.21a8.48,8.48,0,0,0-6.23-2.75H20.48A8.45,8.45,0,0,0,12,13.9V87a8.44,8.44,0,0,0,8.44,8.43H82A8.44,8.44,0,0,0,90.46,87V31.5A8.39,8.39,0,0,0,88.25,25.81Zm-5.33,2.5H72.56a2.81,2.81,0,0,1-2.81-2.81V13.9ZM82,89.84H20.48A2.81,2.81,0,0,1,17.66,87V13.9a2.81,2.81,0,0,1,2.82-2.81H64.12V25.5a8.45,8.45,0,0,0,8.44,8.43H84.84V87A2.81,2.81,0,0,1,82,89.84Z"></path></g></svg>