<svg height='100px' width='100px'  fill="#FFFFFF" xmlns="http://www.w3.org/2000/svg" viewBox="0 0 100 100" x="0px" y="0px"><title>mp4</title><g><path d="M23.71,63.59V44.46a.94.94,0,0,1,.94-.94h3.59a.93.93,0,0,1,.88.62l3.16,8.72c.22.63.42,1.27.61,1.92s.4,1.31.62,1.95h.12q.33-1,.6-1.95t.6-1.92l3.09-8.71a1,1,0,0,1,.89-.63h3.55a.94.94,0,0,1,.94.94V63.59a.94.94,0,0,1-.94.94H39.92a.94.94,0,0,1-.94-.94V56.83c0-.52,0-1.09.07-1.71s.09-1.25.16-1.88.13-1.26.19-1.87.13-1.18.2-1.7h-.13l-1.71,5L35,62.08a.94.94,0,0,1-.88.61H32.8a.92.92,0,0,1-.87-.61l-2.77-7.41-1.68-5h-.13c.07.52.13,1.08.19,1.7s.13,1.23.2,1.87.12,1.26.16,1.88.06,1.19.06,1.71v6.76a.94.94,0,0,1-.93.94H24.65A.94.94,0,0,1,23.71,63.59Z"></path><path d="M46.65,63.59V44.46a.94.94,0,0,1,.94-.94h6.28a14.6,14.6,0,0,1,3.25.34A7.33,7.33,0,0,1,59.76,45a5.54,5.54,0,0,1,1.79,2.09,7.06,7.06,0,0,1,.66,3.21,7.24,7.24,0,0,1-.66,3.19,6.21,6.21,0,0,1-1.79,2.22A7.6,7.6,0,0,1,57.15,57a11.52,11.52,0,0,1-3.15.42H52.32a.94.94,0,0,0-.93.94v5.24a.94.94,0,0,1-.94.94H47.59A.94.94,0,0,1,46.65,63.59ZM51.39,52.7a.94.94,0,0,0,.93.94h1.39q3.85,0,3.86-3.35a2.55,2.55,0,0,0-1-2.32,5.4,5.4,0,0,0-3-.68H52.32a.94.94,0,0,0-.93.94Z"></path><path d="M71.23,63.59v-3a.94.94,0,0,0-.94-.94h-7a.94.94,0,0,1-.94-.94v-2a1,1,0,0,1,.14-.49l7.06-11.63a.94.94,0,0,1,.8-.45h4.34a.94.94,0,0,1,.94.94V55.08a.94.94,0,0,0,.93.94h.48A.94.94,0,0,1,78,57v1.73a.94.94,0,0,1-.94.94h-.48a.94.94,0,0,0-.93.94v3a.94.94,0,0,1-.94.94H72.17A.94.94,0,0,1,71.23,63.59ZM68.58,56h1.71a.94.94,0,0,0,.94-.94V52.7c0-.66,0-1.43.07-2.3s.08-1.63.13-2.27H71.3q-.39.84-.81,1.71c-.27.56-.56,1.13-.85,1.7l0,.07-1.82,3A.93.93,0,0,0,68.58,56Z"></path><path d="M87,25.34,70.92,7.75A8.44,8.44,0,0,0,64.69,5H19.23a8.45,8.45,0,0,0-8.44,8.44V86.56A8.45,8.45,0,0,0,19.23,95H80.77a8.45,8.45,0,0,0,8.44-8.44V31A8.42,8.42,0,0,0,87,25.34Zm-5.33,2.51H71.31A2.82,2.82,0,0,1,68.5,25V13.44Zm-.9,61.53H19.23a2.82,2.82,0,0,1-2.82-2.82V13.44a2.82,2.82,0,0,1,2.82-2.82H62.87V25a8.45,8.45,0,0,0,8.44,8.44H83.59V86.56A2.83,2.83,0,0,1,80.77,89.38Z"></path></g></svg>