<svg height='100px' width='100px'  fill="#FFFFFF" xmlns="http://www.w3.org/2000/svg" xmlns:xlink="http://www.w3.org/1999/xlink" viewBox="0 0 100 125" version="1.1" x="0px" y="0px"><title>JSON</title><desc>Created with Sketch.</desc><g stroke="none" stroke-width="1" fill="none" fill-rule="evenodd"><path d="M96,125 L4,125 C1.790861,125 0,123.209139 0,121 L0,4 C0,1.790861 1.790861,0 4,0 L72.375,0 L72.375,22.785 C72.375,25.4580582 74.5419418,27.625 77.215,27.625 L100,27.625 L100,121 C100,123.209139 98.209139,125 96,125 Z M22.204,81.24 C24.028,81.24 25.54,80.712 26.572,79.68 C27.58,78.672 28.156,77.184 28.156,75.192 L28.156,64.2 L24.364,64.2 L24.364,75.024 C24.364,76.968 23.5,77.808 22.108,77.808 C20.932,77.808 19.996,77.184 19.036,76.128 L16.708,78.72 C17.86,80.088 19.588,81.24 22.204,81.24 Z M37.9,81.24 C41.524,81.24 44.068,79.368 44.068,76.032 L44.068,75.984 C44.068,73.056 42.148,71.832 38.74,70.944 C35.836,70.2 35.116,69.84 35.116,68.736 L35.116,68.688 C35.116,67.872 35.86,67.224 37.276,67.224 C38.692,67.224 40.156,67.848 41.644,68.88 L43.564,66.096 C41.86,64.728 39.772,63.96 37.324,63.96 C33.892,63.96 31.444,65.976 31.444,69.024 L31.444,69.072 C31.444,72.408 33.628,73.344 37.012,74.208 C39.82,74.928 40.396,75.408 40.396,76.344 L40.396,76.392 C40.396,77.376 39.484,77.976 37.972,77.976 C36.052,77.976 34.468,77.184 32.956,75.936 L30.772,78.552 C32.788,80.352 35.356,81.24 37.9,81.24 Z M55.444,81.288 C60.628,81.288 64.396,77.376 64.396,72.6 L64.396,72.552 C64.396,67.776 60.676,63.912 55.492,63.912 C50.308,63.912 46.54,67.824 46.54,72.6 L46.54,72.648 C46.54,77.424 50.26,81.288 55.444,81.288 Z M55.492,77.88 C52.516,77.88 50.404,75.48 50.404,72.6 L50.404,72.552 C50.404,69.672 52.468,67.32 55.444,67.32 C58.42,67.32 60.532,69.72 60.532,72.6 L60.532,72.648 C60.532,75.528 58.468,77.88 55.492,77.88 Z M67.684,81 L71.332,81 L71.332,70.32 L79.468,81 L82.612,81 L82.612,64.2 L78.964,64.2 L78.964,74.544 L71.092,64.2 L67.684,64.2 L67.684,81 Z M75,21 L75,0 L100,25 L79,25 C76.790861,25 75,23.209139 75,21 Z" fill="#FFFFFF" fill-rule="nonzero"></path></g></svg>