<svg height='100px' width='100px'  fill="#FFFFFF" xmlns="http://www.w3.org/2000/svg" viewBox="0 0 100 100" x="0px" y="0px"><title>txt</title><g><path d="M42,44.46a.94.94,0,0,0-.93-.94H26.63a.94.94,0,0,0-.94.94v2.12a.94.94,0,0,0,.94.94h3.89a.94.94,0,0,1,.94.93V63.59a.94.94,0,0,0,.94.94h2.89a.94.94,0,0,0,.94-.94V48.45a.94.94,0,0,1,.94-.93h3.89a.94.94,0,0,0,.93-.94Z"></path><path d="M53.22,54.4a.94.94,0,0,1,0-.88l4.5-8.63a.94.94,0,0,0-.83-1.37H54a.93.93,0,0,0-.86.57l-1.44,3.39L51,49.05c-.22.54-.45,1.15-.69,1.82h-.13l-.81-1.82c-.23-.55-.47-1.07-.7-1.57l-1.59-3.42a.93.93,0,0,0-.85-.54H43.14a.93.93,0,0,0-.82,1.38l4.5,8.39a1,1,0,0,1,0,.89l-4.84,9a.94.94,0,0,0,.82,1.39h2.92a.94.94,0,0,0,.85-.55l1.72-3.74c.23-.56.47-1.11.71-1.66s.47-1.14.71-1.78h.12l.83,1.78c.24.55.5,1.1.75,1.66L53.24,64a.94.94,0,0,0,.84.53H57.2A.94.94,0,0,0,58,63.14Z"></path><path d="M73.37,43.52H58.94a.94.94,0,0,0-.93.94v2.12a.94.94,0,0,0,.93.94h3.9a.93.93,0,0,1,.93.93V63.59a.94.94,0,0,0,.94.94H67.6a.94.94,0,0,0,.94-.94V48.45a.94.94,0,0,1,.94-.93h3.89a.94.94,0,0,0,.94-.94V44.46A.94.94,0,0,0,73.37,43.52Z"></path><path d="M87,25.34,70.92,7.75A8.46,8.46,0,0,0,64.69,5H19.23a8.45,8.45,0,0,0-8.44,8.44V86.56A8.45,8.45,0,0,0,19.23,95H80.77a8.45,8.45,0,0,0,8.44-8.44V31A8.42,8.42,0,0,0,87,25.34Zm-5.33,2.51H71.31A2.82,2.82,0,0,1,68.5,25V13.44Zm-.9,61.53H19.23a2.82,2.82,0,0,1-2.82-2.82V13.44a2.82,2.82,0,0,1,2.82-2.82H62.87V25a8.45,8.45,0,0,0,8.44,8.44H83.59V86.56A2.82,2.82,0,0,1,80.77,89.38Z"></path></g></svg>