<svg height='100px' width='100px'  fill="#FFFFFF" xmlns="http://www.w3.org/2000/svg" viewBox="0 0 100 100" x="0px" y="0px"><title>mp3</title><g><path d="M42.36,43.52H38.81a1,1,0,0,0-.89.63l-3.09,8.71q-.33.95-.6,1.92t-.6,1.95h-.12c-.22-.64-.42-1.29-.62-1.95s-.39-1.29-.61-1.92l-3.16-8.72a.93.93,0,0,0-.88-.62H24.65a.94.94,0,0,0-.94.94V63.59a.94.94,0,0,0,.94.94H27a.94.94,0,0,0,.93-.94V56.83q0-.78-.06-1.71c0-.62-.1-1.25-.16-1.88s-.13-1.26-.2-1.87-.12-1.18-.19-1.7h.13l1.68,5,2.77,7.41a.92.92,0,0,0,.87.61h1.31a.94.94,0,0,0,.88-.61l2.77-7.41,1.71-5h.13c-.07.52-.13,1.08-.2,1.7s-.13,1.23-.19,1.87-.12,1.26-.16,1.88S39,56.31,39,56.83v6.76a.94.94,0,0,0,.94.94h2.44a.94.94,0,0,0,.94-.94V44.46A.94.94,0,0,0,42.36,43.52Z"></path><path d="M59.76,45a7.33,7.33,0,0,0-2.64-1.13,14.6,14.6,0,0,0-3.25-.34H47.59a.94.94,0,0,0-.94.94V63.59a.94.94,0,0,0,.94.94h2.86a.94.94,0,0,0,.94-.94V58.35a.94.94,0,0,1,.93-.94H54A11.52,11.52,0,0,0,57.15,57a7.6,7.6,0,0,0,2.61-1.29,6.21,6.21,0,0,0,1.79-2.22,7.24,7.24,0,0,0,.66-3.19,7.06,7.06,0,0,0-.66-3.21A5.54,5.54,0,0,0,59.76,45Zm-6,8.65H52.32a.94.94,0,0,1-.93-.94V48.23a.94.94,0,0,1,.93-.94h1.26a5.4,5.4,0,0,1,3,.68,2.55,2.55,0,0,1,1,2.32Q57.57,53.64,53.71,53.64Z"></path><path d="M73.13,54v-.13A6.34,6.34,0,0,0,75.66,52a4.24,4.24,0,0,0,.89-2.72A5.22,5.22,0,0,0,76,46.9a5.14,5.14,0,0,0-1.43-1.75,6.41,6.41,0,0,0-2.22-1.1,10.88,10.88,0,0,0-2.89-.37,8.29,8.29,0,0,0-3.46.7,11.07,11.07,0,0,0-2.19,1.28A1,1,0,0,0,63.65,47l1.19,1.45a.94.94,0,0,0,1.29.14,9.83,9.83,0,0,1,1.16-.75,4.08,4.08,0,0,1,2-.48,2.66,2.66,0,0,1,1.86.59,2.15,2.15,0,0,1,.65,1.66,2.51,2.51,0,0,1-.24,1.11,2.09,2.09,0,0,1-.81.87,4.24,4.24,0,0,1-1.48.57,10.28,10.28,0,0,1-1.41.17.94.94,0,0,0-.89.93v1.52a.94.94,0,0,0,.9.94,12.44,12.44,0,0,1,1.84.19,5.22,5.22,0,0,1,1.67.58,2,2,0,0,1,.85.92,2.86,2.86,0,0,1,.25,1.22,2.06,2.06,0,0,1-.91,1.79,4.12,4.12,0,0,1-2.41.63,5.13,5.13,0,0,1-2.43-.58,8.67,8.67,0,0,1-1.32-.84.93.93,0,0,0-1.33.18l-1.13,1.54a1,1,0,0,0,.13,1.26,8.46,8.46,0,0,0,2.28,1.48,10.17,10.17,0,0,0,4.25.79,10.37,10.37,0,0,0,2.93-.4,7.65,7.65,0,0,0,2.42-1.16,5.78,5.78,0,0,0,1.64-1.87A5.12,5.12,0,0,0,77.19,59a4.57,4.57,0,0,0-1.14-3.23A6.2,6.2,0,0,0,73.13,54Z"></path><path d="M87,25.34,70.92,7.75A8.44,8.44,0,0,0,64.69,5H19.23a8.45,8.45,0,0,0-8.44,8.44V86.56A8.45,8.45,0,0,0,19.23,95H80.77a8.45,8.45,0,0,0,8.44-8.44V31A8.42,8.42,0,0,0,87,25.34Zm-5.33,2.51H71.31A2.82,2.82,0,0,1,68.5,25V13.44Zm-.9,61.53H19.23a2.82,2.82,0,0,1-2.82-2.82V13.44a2.82,2.82,0,0,1,2.82-2.82H62.87V25a8.45,8.45,0,0,0,8.44,8.44H83.59V86.56A2.82,2.82,0,0,1,80.77,89.38Z"></path></g></svg>